Coordinates
version=1
nRows=18
nColumns=22
inDegrees=yes

Units are S.I. units (second, meters, Newtons, ...)
If the header above contains a line with 'inDegrees', this indicates whether rotational values are in degrees (yes) or radians (no).

endheader
time	pelvis_tilt	pelvis_list	pelvis_rotation	pelvis_tx	pelvis_ty	pelvis_tz	hip_flexion_r	hip_adduction_r	hip_rotation_r	knee_angle_r	ankle_angle_r	subtalar_angle_r	hip_flexion_l	hip_adduction_l	hip_rotation_l	knee_angle_l	ankle_angle_l	subtalar_angle_l	lumbar_extension	lumbar_bending	lumbar_rotation
      2.62000000	      5.84974962	     -3.72030099	     31.94062357	      0.31681858	      1.08133896	      0.96755965	      1.07572688	      8.14057608	     -3.47019381	    -13.98856879	     13.13101101	      2.58144570	     20.68979859	     -4.10579860	      3.06018614	    -54.23315185	      8.79900430	     -1.55050641	     -8.13545135	      3.65032136	     -0.25026897
      2.63000000	      5.76402409	     -3.64239944	     32.01230824	      0.32280777	      1.08132256	      0.96418057	      0.58966805	      8.05439985	     -3.51472635	    -13.76549058	     13.38378837	      2.55411066	     21.07611239	     -4.03766699	      2.83534229	    -52.51706174	      9.07358438	     -1.59236657	     -8.12972858	      3.52182422	      0.05378172
      2.64000000	      5.70436469	     -3.55404090	     32.09493526	      0.32877889	      1.08129060	      0.96067729	      0.05514933	      7.97211424	     -3.52998777	    -13.51215121	     13.61057341	      2.50077852	     21.37346319	     -3.98361302	      2.58254952	    -50.70397928	      9.25567681	     -1.64918434	     -8.15199174	      3.40195109	      0.36039361
      2.65000000	      5.60902439	     -3.49099287	     32.17630432	      0.33473078	      1.08109828	      0.95707510	     -0.41294531	      7.88421561	     -3.58792301	    -13.29918476	     13.84730009	      2.43247505	     21.67420969	     -3.95672192	      2.25013098	    -48.82713642	      9.39879416	     -1.67410348	     -8.11927571	      3.28960623	      0.64389516
      2.66000000	      5.52673484	     -3.42131792	     32.26414046	      0.34066791	      1.08085753	      0.95335401	     -0.90629183	      7.79543231	     -3.62913156	    -13.07307162	     14.05838840	      2.31756690	     21.90639144	     -3.93350403	      1.88249104	    -46.87856762	      9.47520875	     -1.68228861	     -8.10001674	      3.18047852	      0.91775031
      2.67000000	      5.40386773	     -3.39343456	     32.38021829	      0.34656168	      1.08043811	      0.94947949	     -1.33787271	      7.71743105	     -3.68304529	    -12.85060041	     14.21840274	      2.19595937	     22.16386963	     -3.91085197	      1.50859999	    -44.88912942	      9.53816842	     -1.65622942	     -8.00767872	      3.09673578	      1.13413683
      2.68000000	      5.37691174	     -3.28329837	     32.46515321	      0.35250166	      1.08012507	      0.94552392	     -1.90587305	      7.61608036	     -3.74630447	    -12.63538881	     14.42385366	      1.87231844	     22.22980889	     -3.90163762	      0.99988445	    -42.84262767	      9.49291753	     -1.59561514	     -8.06050435	      2.98428137	      1.40014935
      2.69000000	      5.24122018	     -3.22555213	     32.56211877	      0.35836477	      1.07952724	      0.94145211	     -2.30811890	      7.49075628	     -3.84624900	    -12.48995183	     14.64012100	      1.61240998	     22.39833224	     -3.85490387	      0.48362936	    -40.78047241	      9.40012166	     -1.49162842	     -7.97239337	      2.86107963	      1.62987311
      2.70000000	      5.14545806	     -3.13898694	     32.66989408	      0.36425156	      1.07892722	      0.93723506	     -2.78084440	      7.36314593	     -3.94289658	    -12.31845541	     14.78740375	      1.19265298	     22.46932761	     -3.79870696	     -0.07712822	    -38.68874647	      9.30057831	     -1.34121187	     -7.93417949	      2.73735630	      1.81319779
      2.71000000	      5.00406600	     -3.05557707	     32.78010526	      0.37009772	      1.07818335	      0.93291189	     -3.18343292	      7.20531355	     -4.07561363	    -12.20127496	     14.97061500	      0.79222215	     22.54892806	     -3.69781005	     -0.63952279	    -36.58410023	      9.11781052	     -1.15415942	     -7.85023343	      2.58730946	      1.98544340
      2.72000000	      4.84139860	     -2.95931120	     32.90024664	      0.37591877	      1.07735484	      0.92844015	     -3.56078247	      7.01779405	     -4.23522365	    -12.11683146	     15.17177871	      0.39276119	     22.60112115	     -3.54807611	     -1.18688870	    -34.46850618	      8.87366346	     -0.92843035	     -7.75000517	      2.41719091	      2.12719346
      2.73000000	      4.65945024	     -2.85172117	     33.03499330	      0.38171818	      1.07645530	      0.92383832	     -3.91641249	      6.80587418	     -4.41794279	    -12.05919148	     15.39854243	      0.00291111	     22.62575211	     -3.34920713	     -1.68256044	    -32.34835822	      8.55977394	     -0.66682312	     -7.63682376	      2.22530176	      2.23076222
      2.74000000	      4.42310580	     -2.75312645	     33.18779255	      0.38748587	      1.07542294	      0.91911008	     -4.19157150	      6.56451758	     -4.65074930	    -12.05719582	     15.68865343	     -0.27987830	     22.67246900	     -3.09873489	     -2.10105742	    -30.24048128	      8.17712416	     -0.42915477	     -7.46397183	      2.00969755	      2.29850472
      2.75000000	      4.22136464	     -2.61165968	     33.35182151	      0.39326853	      1.07445828	      0.91426198	     -4.53257334	      6.30937356	     -4.83935650	    -12.04769218	     15.93993213	     -0.66079451	     22.60346097	     -2.80699860	     -2.40577918	    -28.11520509	      7.79485963	     -0.14565094	     -7.35067289	      1.77275888	      2.33365546
      2.76000000	      3.94376682	     -2.51687417	     33.54217936	      0.39903613	      1.07331936	      0.90931120	     -4.76233756	      6.04854812	     -5.08086029	    -12.07413013	     16.24348892	     -0.87853607	     22.61700436	     -2.50434893	     -2.63806593	    -26.05226344	      7.32772759	      0.03842063	     -7.13018726	      1.53043547	      2.33695100
      2.77000000	      3.70153627	     -2.38589339	     33.73404086	      0.40482519	      1.07224328	      0.90428278	     -5.03568611	      5.77638570	     -5.30326676	    -12.13094433	     16.55731413	     -1.13740537	     22.52982518	     -2.19553786	     -2.79994949	    -24.01567235	      6.89456204	      0.17226389	     -6.97022078	      1.26966443	      2.33348001
      2.78000000	      3.46571704	     -2.26546828	     33.93246916	      0.41063511	      1.07115011	      0.89918062	     -5.30760015	      5.51757392	     -5.51016634	    -12.20050048	     16.86625903	     -1.35144497	     22.43037684	     -1.92457585	     -2.98240032	    -22.07532577	      6.49020826	      0.19471017	     -6.81021487	      1.01818669	      2.31581745
      2.79000000	      3.21324365	     -2.17590062	     34.13261222	      0.41650612	      1.06999300	      0.89402511	     -5.54451569	      5.27707955	     -5.71609224	    -12.28590870	     17.17899649	     -1.48585592	     22.37266903	     -1.71089488	     -3.27132895	    -20.28632818	      6.12384549	      0.13198275	     -6.60777214	      0.77263927	      2.30406803
